<svg width="37" height="37" viewBox="0 0 37 37" fill="none" xmlns="http://www.w3.org/2000/svg">
<path d="M19.1406 0.193656C18.9508 0.0673742 18.7279 0 18.5 0C18.2721 0 18.0492 0.0673742 17.8594 0.193656L0.515688 11.7563C0.30929 11.894 0.152628 12.0943 0.0688412 12.3278C-0.0149452 12.5613 -0.0214127 12.8156 0.0503939 13.053C0.122201 13.2905 0.268474 13.4986 0.467607 13.6465C0.666741 13.7945 0.908176 13.8744 1.15625 13.8746H5.49219V30.0624H3.46875C3.16209 30.0624 2.868 30.1842 2.65116 30.4011C2.43432 30.6179 2.3125 30.912 2.3125 31.2187C2.3125 31.5253 2.43432 31.8194 2.65116 32.0363C2.868 32.2531 3.16209 32.3749 3.46875 32.3749H33.5312C33.8379 32.3749 34.132 32.2531 34.3488 32.0363C34.5657 31.8194 34.6875 31.5253 34.6875 31.2187C34.6875 30.912 34.5657 30.6179 34.3488 30.4011C34.132 30.1842 33.8379 30.0624 33.5312 30.0624H31.5078V13.8746H35.8438C36.0918 13.8744 36.3333 13.7945 36.5324 13.6465C36.7315 13.4986 36.8778 13.2905 36.9496 13.053C37.0214 12.8156 37.0149 12.5613 36.9312 12.3278C36.8474 12.0943 36.6907 11.894 36.4843 11.7563L19.1406 0.193656ZM28.6172 13.8746V30.0624H25.7266V13.8746H28.6172ZM22.8359 13.8746V30.0624H19.9453V13.8746H22.8359ZM17.0547 13.8746V30.0624H14.1641V13.8746H17.0547ZM11.2734 13.8746V30.0624H8.38281V13.8746H11.2734ZM18.5 9.24955C17.8867 9.24955 17.2985 9.00591 16.8648 8.57223C16.4311 8.13854 16.1875 7.55034 16.1875 6.93701C16.1875 6.32369 16.4311 5.73549 16.8648 5.3018C17.2985 4.86812 17.8867 4.62448 18.5 4.62448C19.1133 4.62448 19.7015 4.86812 20.1352 5.3018C20.5689 5.73549 20.8125 6.32369 20.8125 6.93701C20.8125 7.55034 20.5689 8.13854 20.1352 8.57223C19.7015 9.00591 19.1133 9.24955 18.5 9.24955ZM1.15625 34.6875C0.849593 34.6875 0.555497 34.8093 0.338658 35.0261C0.121819 35.243 0 35.5371 0 35.8437C0 36.1504 0.121819 36.4445 0.338658 36.6613C0.555497 36.8782 0.849593 37 1.15625 37H35.8438C36.1504 37 36.4445 36.8782 36.6613 36.6613C36.8782 36.4445 37 36.1504 37 35.8437C37 35.5371 36.8782 35.243 36.6613 35.0261C36.4445 34.8093 36.1504 34.6875 35.8438 34.6875H1.15625Z" fill="white"/>
</svg>
