<svg width="48" height="49" viewBox="0 0 48 49" fill="none" xmlns="http://www.w3.org/2000/svg">
<path d="M10 12.5H46V36.5H10V12.5ZM28 18.5C29.5913 18.5 31.1174 19.1321 32.2426 20.2574C33.3679 21.3826 34 22.9087 34 24.5C34 26.0913 33.3679 27.6174 32.2426 28.7426C31.1174 29.8679 29.5913 30.5 28 30.5C26.4087 30.5 24.8826 29.8679 23.7574 28.7426C22.6321 27.6174 22 26.0913 22 24.5C22 22.9087 22.6321 21.3826 23.7574 20.2574C24.8826 19.1321 26.4087 18.5 28 18.5ZM18 16.5C18 17.5609 17.5786 18.5783 16.8284 19.3284C16.0783 20.0786 15.0609 20.5 14 20.5V28.5C15.0609 28.5 16.0783 28.9214 16.8284 29.6716C17.5786 30.4217 18 31.4391 18 32.5H38C38 31.4391 38.4214 30.4217 39.1716 29.6716C39.9217 28.9214 40.9391 28.5 42 28.5V20.5C40.9391 20.5 39.9217 20.0786 39.1716 19.3284C38.4214 18.5783 38 17.5609 38 16.5H18ZM2 20.5H6V40.5H38V44.5H2V20.5Z" fill="white"/>
</svg>
