<svg width="36" height="26" viewBox="0 0 36 26" fill="none" xmlns="http://www.w3.org/2000/svg">
<path d="M19.8 14.8149H18.9V9.07458C18.9 8.78626 18.6986 8.55273 18.45 8.55273H17.6861C17.4195 8.55273 17.1591 8.64406 16.9374 8.81562L16.0751 9.48228C16.0259 9.52025 15.9837 9.56909 15.9508 9.62601C15.9179 9.68292 15.895 9.74679 15.8834 9.81398C15.8718 9.88116 15.8718 9.95034 15.8832 10.0176C15.8947 10.0848 15.9175 10.1487 15.9502 10.2057L16.4497 11.0739C16.4825 11.131 16.5246 11.1799 16.5737 11.2181C16.6228 11.2562 16.6778 11.2828 16.7358 11.2962C16.7937 11.3097 16.8534 11.3098 16.9113 11.2965C16.9693 11.2832 17.0244 11.2568 17.0736 11.2187L17.1 11.1985V14.8149H16.2C15.9514 14.8149 15.75 15.0485 15.75 15.3368V16.3805C15.75 16.6688 15.9514 16.9023 16.2 16.9023H19.8C20.0486 16.9023 20.25 16.6688 20.25 16.3805V15.3368C20.25 15.0485 20.0486 14.8149 19.8 14.8149ZM34.2 0.203125H1.8C0.806062 0.203125 0 1.13789 0 2.29053V23.1646C0 24.3172 0.806062 25.252 1.8 25.252H34.2C35.1939 25.252 36 24.3172 36 23.1646V2.29053C36 1.13789 35.1939 0.203125 34.2 0.203125ZM2.7 22.1208V17.946C4.68844 17.946 6.3 19.8149 6.3 22.1208H2.7ZM2.7 7.50903V3.33423H6.3C6.3 5.64016 4.68844 7.50903 2.7 7.50903ZM18 20.0334C15.0176 20.0334 12.6 16.7621 12.6 12.7275C12.6 8.69233 15.0176 5.42163 18 5.42163C20.9824 5.42163 23.4 8.69233 23.4 12.7275C23.4 16.7634 20.9812 20.0334 18 20.0334ZM33.3 22.1208H29.7C29.7 19.8149 31.3116 17.946 33.3 17.946V22.1208ZM33.3 7.50903C31.3116 7.50903 29.7 5.64016 29.7 3.33423H33.3V7.50903Z" fill="white"/>
</svg>
