<svg width="42" height="37" viewBox="0 0 42 37" fill="none" xmlns="http://www.w3.org/2000/svg">
<path d="M40.8333 15.9702H38.6821C38.0404 14.5612 37.1071 13.3143 35.9549 12.2716L37.3331 6.95264H34.9997C32.8559 6.95264 30.96 7.90371 29.6766 9.36907C29.1224 9.29157 28.5755 9.20703 27.9994 9.20703H18.6657C13.0218 9.20703 8.31847 13.0818 7.23197 18.2246H4.08185C3.00264 18.2246 2.14948 17.2735 2.36824 16.1957C2.52866 15.3925 3.3089 14.843 4.15477 14.843H4.22768C4.46832 14.843 4.6652 14.6528 4.6652 14.4203V13.0113C4.6652 12.7788 4.46832 12.5886 4.22768 12.5886C2.14948 12.5886 0.297326 14.0258 0.0348159 16.0125C-0.28603 18.4219 1.65363 20.479 4.08185 20.479H6.99862C6.99862 24.1565 8.85078 27.3901 11.6655 29.4473V35.1326C11.6655 35.7525 12.1905 36.2598 12.8322 36.2598H17.499C18.1407 36.2598 18.6657 35.7525 18.6657 35.1326V31.751H27.9994V35.1326C27.9994 35.7525 28.5245 36.2598 29.1661 36.2598H33.833C34.4747 36.2598 34.9997 35.7525 34.9997 35.1326V29.4473C35.8601 28.8203 36.6258 28.0805 37.2821 27.2422H40.8333C41.4749 27.2422 42 26.7349 42 26.115V17.0974C42 16.4775 41.4749 15.9702 40.8333 15.9702ZM31.4996 20.479C30.8579 20.479 30.3329 19.9718 30.3329 19.3518C30.3329 18.7318 30.8579 18.2246 31.4996 18.2246C32.1413 18.2246 32.6663 18.7318 32.6663 19.3518C32.6663 19.9718 32.1413 20.479 31.4996 20.479ZM18.6657 6.95264H27.9994C28.3932 6.95264 28.7797 6.98082 29.1588 7.009C29.1588 6.98786 29.1661 6.97377 29.1661 6.95264C29.1661 3.2188 26.0306 0.189453 22.1659 0.189453C18.3011 0.189453 15.1656 3.2188 15.1656 6.95264C15.1656 7.10058 15.2021 7.24148 15.2094 7.38943C16.3177 7.11467 17.4699 6.95264 18.6657 6.95264Z" fill="white"/>
</svg>
