<svg width="39" height="32" viewBox="0 0 39 32" fill="none" xmlns="http://www.w3.org/2000/svg">
<path d="M38.0312 13.5461H26.4062C25.8734 13.5461 25.4375 13.9829 25.4375 14.5167V16.458C25.4375 16.9919 25.8734 17.4286 26.4062 17.4286H38.0312C38.5641 17.4286 39 16.9919 39 16.458V14.5167C39 13.9829 38.5641 13.5461 38.0312 13.5461ZM13.8125 16.458C18.0932 16.458 21.5625 12.9819 21.5625 8.69287C21.5625 4.40385 18.0932 0.927734 13.8125 0.927734C9.53184 0.927734 6.0625 4.40385 6.0625 8.69287C6.0625 12.9819 9.53184 16.458 13.8125 16.458ZM19.2375 18.3993H18.2264C16.8822 19.0181 15.3867 19.3699 13.8125 19.3699C12.2383 19.3699 10.7488 19.0181 9.39863 18.3993H8.3875C3.89492 18.3993 0.25 22.0513 0.25 26.5527V29.0764C0.25 30.684 1.55176 31.9883 3.15625 31.9883H24.4688C26.0732 31.9883 27.375 30.684 27.375 29.0764V26.5527C27.375 22.0513 23.7301 18.3993 19.2375 18.3993Z" fill="white"/>
</svg>
